#!OML:ASF H:\Terrain\Walking\May29\JustinRory\Justin.ASF
:FULLY-SPECIFIED
:DEGREES
481
root 7.47185 13.7882 -17.2315 3.6302 -1.39547 -2.14952
lowerback 27.136 0.781143 1.5611
upperback 4.91384 1.76366 2.95482
thorax -9.60645 0.817704 1.80137
lowerneck -14.674 -6.83682 -8.0125
upperneck 5.9806 -8.8656 11.8251
head 5.09634 -3.83529 4.19154
rclavicle -1.03368e-014 -2.3059e-014
rhumerus -17.6316 -21.099 -34.4078
rradius 95.1821
rwrist -39.2306
rhand -26.0682 41.71
rfingers 7.12502
rthumb 0.479867 11.7308
lclavicle -1.03368e-014 -2.3059e-014
lhumerus -22.9518 31.4213 59.5078
lradius 95.4115
lwrist 28.0144
lhand -11.3142 27.1505
lfingers 7.12502
lthumb 14.7178 56.6081
rfemur -52.4277 -15.3237 21.4376
rtibia 91.8909
rfoot -30.4692 0.158926
rtoes -26.5174
lfemur -51.1611 19.1801 -11.0572
ltibia 90.3549
lfoot -32.8496 -17.6682
ltoes -23.5036
482
root 7.39733 13.9265 -17.208 3.59475 0.0862524 -2.27247
lowerback 26.6335 0.462141 1.00076
upperback 4.87056 1.24735 3.46681
thorax -9.41076 0.60415 2.87676
lowerneck -14.83 -6.72678 -8.15301
upperneck 6.01961 -8.67074 11.7211
head 5.11432 -3.74374 4.19894
rclavicle -9.54166e-015 -9.54166e-015
rhumerus -19.3846 -19.9199 -35.5222
rradius 97.3177
rwrist -38.6458
rhand -26.4479 41.9722
rfingers 7.12502
rthumb 0.113195 11.9925
lclavicle -9.54166e-015 -9.54166e-015
lhumerus -20.5118 31.24 60.2042
lradius 93.9415
lwrist 27.2638
lhand -11.8964 27.4547
lfingers 7.12502
lthumb 14.1569 56.9524
rfemur -51.2401 -15.9339 21.8289
rtibia 90.4004
rfoot -30.2995 -0.693248
rtoes -26.3967
lfemur -50.4923 18.4948 -10.9949
ltibia 88.6209
lfoot -32.1144 -18.2855
ltoes -20.896
483
root 7.31935 14.0652 -17.1862 3.46496 1.50563 -2.60837
lowerback 26.3094 0.100072 0.55459
upperback 4.71604 0.717891 3.98395
thorax -9.40706 0.380693 3.89607
lowerneck -14.913 -6.54781 -8.15331
upperneck 6.34669 -8.42081 11.4577
head 5.18964 -3.62835 4.13969
rclavicle -9.54166e-015 3.57812e-014
rhumerus -21.2479 -18.5778 -36.8607
rradius 99.2405
rwrist -37.7534
rhand -26.1932 42.1132
rfingers 7.12502
rthumb 0.35915 12.1338
lclavicle -9.54166e-015 3.57812e-014
lhumerus -18.73 30.7348 60.3043
lradius 92.5089
lwrist 26.6239
lhand -12.423 27.7872
lfingers 7.12502
lthumb 13.6494 57.3197
rfemur -49.9769 -16.3785 22.4832
rtibia 88.8459
rfoot -30.1314 -1.6918
rtoes -26.2524
lfemur -49.6751 17.8179 -10.5795
ltibia 86.8865
lfoot -31.3338 -18.912
ltoes -17.6788
484
root 7.24003 14.2082 -17.171 3.31859 2.98457 -3.11867
lowerback 26.1848 -0.292456 0.342451
upperback 4.50473 0.21895 4.48351
thorax -9.55137 0.167252 4.75637
lowerneck -14.8472 -6.31411 -7.99916
upperneck 6.45472 -8.11463 11.1751
head 5.16117 -3.49245 4.0593
rclavicle 9.54166e-015 1.03368e-014
rhumerus -23.1067 -17.4877 -38.3181
rradius 101.085
rwrist -36.4622
rhand -25.6069 42.6624
rfingers 7.12502
rthumb 0.925416 12.6846
lclavicle 9.54166e-015 1.03368e-014
lhumerus -16.9584 30.2483 60.5291
lradius 90.9541
lwrist 25.838
lhand -13.1648 28.0306
lfingers 7.12502
lthumb 12.9344 57.6097
rfemur -48.6786 -16.7756 23.3118
rtibia 87.2339
rfoot -29.9996 -2.51383
rtoes -25.2965
lfemur -48.9083 17.1779 -10.0565
ltibia 85.1024
lfoot -31.0551 -18.4367
ltoes -18.203
485
root 7.16534 14.3437 -17.1586 3.29245 4.53128 -3.70836
lowerback 25.9044 -0.706224 0.266521
upperback 4.35914 -0.272386 5.037
thorax -9.52775 -0.0482496 5.5913
lowerneck -14.6136 -6.14744 -8.06356
upperneck 6.07388 -7.85589 11.1456
head 4.98105 -3.38417 4.09388
rclavicle -1.74931e-014 -5.24792e-014
rhumerus -24.853 -16.5544 -39.7307
rradius 103.063
rwrist -35.411
rhand -25.3585 43.3696
rfingers 7.12502
rthumb 1.16532 13.3931
lclavicle -1.74931e-014 -5.24792e-014
lhumerus -14.9542 30.0336 61.217
lradius 89.4087
lwrist 24.9166
lhand -13.4938 28.3239
lfingers 7.12502
lthumb 12.6172 57.9228
rfemur -47.594 -17.2083 24.2369
rtibia 85.6449
rfoot -29.7874 -3.28261
rtoes -24.4193
lfemur -48.4777 16.7298 -9.64915
ltibia 83.2934
lfoot -31.015 -17.4186
ltoes -20.513
